<svg width="96" height="40" viewBox="0 0 96 40" fill="none" xmlns="http://www.w3.org/2000/svg">
<path d="M91.4053 39.5413H83.8817V38.3486H86.1499V28.3025L81.0327 13.2103H79.5944V12.0176H86.4541V13.2103H84.3519L88.6116 26.3299L92.6224 13.2103H90.4095V12.0176H95.3054C95.3054 12.1705 95.2962 12.3234 95.2778 12.4763C95.2224 12.9656 94.9919 13.2103 94.5863 13.2103C93.9777 13.2409 93.4891 13.669 93.1203 14.4947L89.1372 27.8896V38.3486H90.6585C91.0089 38.4098 91.2578 38.8074 91.4053 39.5413Z" fill="#9D9D9D"/>
<path d="M59.952 12.0176H67.8352C69.7898 12.0176 71.5048 12.7974 72.98 14.3571C75.3034 16.8037 76.4652 20.6264 76.4652 25.8253C76.4652 29.8621 75.663 33.1497 74.0587 35.688C72.4175 38.2569 70.343 39.5413 67.8352 39.5413H59.952V38.3486H62.1648V13.2103H59.952V12.0176ZM67.8352 13.2103H65.1244V38.3486H67.8628C71.2374 38.1957 72.9892 33.9448 73.1183 25.596C73.1183 23.18 72.98 21.131 72.7034 19.449C72.0211 15.2898 70.3983 13.2103 67.8352 13.2103Z" fill="#9D9D9D"/>
<path d="M47.4189 11.5591C49.3735 11.5591 51.0977 12.4765 52.5913 14.3115C54.7304 16.9415 55.7999 20.7795 55.7999 25.8256C55.7999 30.0765 54.9425 33.5475 53.2275 36.2387C51.6048 38.7464 49.6409 40.0003 47.3359 40.0003C45.3259 40.0003 43.5556 39.0217 42.0251 37.0644C39.9413 34.3426 38.8995 30.5352 38.8995 25.6421C38.8995 21.4218 39.7662 17.9813 41.4995 15.3207C43.1223 12.8129 45.0954 11.5591 47.4189 11.5591ZM47.4189 38.7159C50.7012 38.6853 52.3516 34.3121 52.37 25.5962C52.3516 17.1556 50.6735 12.9047 47.3359 12.8435C43.9982 12.8741 42.3201 17.2015 42.3017 25.8256C42.3201 34.3579 44.0259 38.6547 47.4189 38.7159Z" fill="#9D9D9D"/>
<path d="M25.9513 11.5591C27.9059 11.5591 29.6301 12.4765 31.1237 14.3115C33.2628 16.9415 34.3323 20.7795 34.3323 25.8256C34.3323 30.0765 33.4749 33.5475 31.7599 36.2387C30.1372 38.7464 28.1733 40.0003 25.8683 40.0003C23.8583 40.0003 22.088 39.0217 20.5575 37.0644C18.4738 34.3426 17.4319 30.5352 17.4319 25.6421C17.4319 21.4218 18.2986 17.9813 20.032 15.3207C21.6547 12.8129 23.6278 11.5591 25.9513 11.5591ZM25.9513 38.7159C29.2336 38.6853 30.884 34.3121 30.9025 25.5962C30.884 17.1556 29.206 12.9047 25.8683 12.8435C22.5306 12.8741 20.8525 17.2015 20.8341 25.8256C20.8525 34.3579 22.5583 38.6547 25.9513 38.7159Z" fill="#9D9D9D"/>
<path d="M12.8928 32.1558C12.8928 34.0824 12.4779 35.7339 11.6481 37.1101C10.4495 39.0367 8.74373 40.0001 6.53091 40.0001C4.63156 40.0001 2.98117 39.2202 1.57971 37.6605C1.57971 38.2416 1.56127 38.6697 1.52439 38.945C1.43219 39.4037 1.15559 39.6331 0.69458 39.6331V30.0456H1.63503C1.67191 31.0242 1.76411 31.9417 1.91163 32.798C2.52016 36.7431 3.99538 38.7156 6.33728 38.7156C6.98269 38.7156 7.582 38.5168 8.1352 38.1193C9.31538 37.263 9.90546 35.7645 9.90546 33.6237C9.90546 32.8592 9.80404 32.1558 9.6012 31.5136C9.17708 30.2291 8.15364 28.9447 6.53091 27.6602C4.74221 26.284 3.70955 25.4583 3.43295 25.1831C1.69957 23.5317 0.832882 21.4215 0.832882 18.8526C0.832882 17.1095 1.21091 15.6109 1.96695 14.3571C3.07337 12.4916 4.65922 11.5588 6.72453 11.5588C8.38415 11.5588 9.91468 12.1552 11.3161 13.3479C11.3161 13.0726 11.3254 12.828 11.3438 12.6139C11.4176 12.0634 11.7034 11.7882 12.2013 11.7882V19.9077H11.2608C11.2608 18.2257 11.0119 16.7884 10.514 15.5957C9.72106 13.7913 8.55933 12.8892 7.02879 12.8892C6.49403 12.8892 5.99614 13.0268 5.53513 13.302C4.41028 14.036 3.84786 15.3663 3.84786 17.293C3.84786 18.0575 3.94928 18.7456 4.15212 19.3572C4.5578 20.6417 5.5628 21.8955 7.16709 23.1188C8.95579 24.495 9.99767 25.336 10.2927 25.6418C12.0261 27.3238 12.8928 29.4952 12.8928 32.1558Z" fill="#9D9D9D"/>
<path d="M67.9133 0C68.6842 0 69.3644 0.222953 69.9539 0.668858C70.823 1.31882 71.2576 2.26732 71.2576 3.51434C71.2576 4.57998 70.8986 5.44912 70.1806 6.12175C69.5382 6.72637 68.7711 7.02868 67.8793 7.02868C67.0857 7.02868 66.3829 6.78683 65.7707 6.30314C64.9318 5.63806 64.5123 4.69334 64.5123 3.46899C64.5123 2.41091 64.8675 1.55311 65.578 0.89559C66.2279 0.29853 67.0064 0 67.9133 0ZM67.9133 6.71126C68.2156 6.71126 68.4952 6.65457 68.7522 6.54121C69.6667 6.14065 70.1239 5.11658 70.1239 3.46899C70.1164 1.38306 69.3682 0.33254 67.8793 0.317424C67.6677 0.317424 67.4674 0.340097 67.2785 0.385444C66.1901 0.672637 65.646 1.7156 65.646 3.51434C65.646 4.0585 65.6989 4.53841 65.8047 4.95409C66.1146 6.12553 66.8174 6.71126 67.9133 6.71126Z" fill="#9D9D9D"/>
<path d="M58.4699 0C59.2408 0 59.921 0.222953 60.5105 0.668858C61.3797 1.31882 61.8142 2.26732 61.8142 3.51434C61.8142 4.57998 61.4552 5.44912 60.7373 6.12175C60.0949 6.72637 59.3277 7.02868 58.4359 7.02868C57.6424 7.02868 56.9395 6.78683 56.3273 6.30314C55.4884 5.63806 55.069 4.69334 55.069 3.46899C55.069 2.41091 55.4242 1.55311 56.1346 0.89559C56.7846 0.29853 57.563 0 58.4699 0ZM58.4699 6.71126C58.7723 6.71126 59.0519 6.65457 59.3089 6.54121C60.2233 6.14065 60.6806 5.11658 60.6806 3.46899C60.673 1.38306 59.9248 0.33254 58.4359 0.317424C58.2243 0.317424 58.024 0.340097 57.8351 0.385444C56.7468 0.672637 56.2026 1.7156 56.2026 3.51434C56.2026 4.0585 56.2555 4.53841 56.3613 4.95409C56.6712 6.12553 57.3741 6.71126 58.4699 6.71126Z" fill="#9D9D9D"/>
<path d="M51.2713 6.91523H48.1537V6.62048H49.2307V0.408032H48.6185C48.0366 0.453379 47.6247 0.84638 47.3828 1.58704L47.2015 2.34659H46.884L46.9407 0.113281H52.541L52.5977 2.34659H52.2802L52.0989 1.58704C52.0913 1.57192 52.0875 1.54925 52.0875 1.51902C51.8835 0.778361 51.4753 0.408032 50.8632 0.408032H50.2057V6.62048H50.9765C51.0143 6.62048 51.0521 6.62426 51.0899 6.63182C51.2108 6.65449 51.2713 6.74896 51.2713 6.91523Z" fill="#9D9D9D"/>
<path d="M43.313 6.91523H40.1954V6.62048H41.2724V0.408032H40.6602C40.0783 0.453379 39.6664 0.84638 39.4245 1.58704L39.2431 2.34659H38.9257L38.9824 0.113281H44.5827L44.6394 2.34659H44.3219L44.1405 1.58704C44.133 1.57192 44.1292 1.54925 44.1292 1.51902C43.9252 0.778361 43.517 0.408032 42.9049 0.408032H42.2473V6.62048H43.0182C43.056 6.62048 43.0938 6.62426 43.1316 6.63182C43.2525 6.65449 43.313 6.74896 43.313 6.91523Z" fill="#9D9D9D"/>
<path d="M37.0779 6.91523H34.6292V6.62048H35.366L34.5158 4.42118H32.1465L31.2962 6.62048H31.8517C31.8895 6.62048 31.9273 6.62426 31.9651 6.63182C32.086 6.65449 32.1465 6.74896 32.1465 6.91523H30.1285V6.62048H30.8427L33.3821 0.113281H33.8016L36.3977 6.62048H36.7831C36.8209 6.62048 36.8587 6.62426 36.8965 6.63182C37.0174 6.65449 37.0779 6.74896 37.0779 6.91523ZM34.3911 4.09242L33.3255 1.34897L32.2712 4.09242H34.3911Z" fill="#9D9D9D"/>
<path d="M26.9543 6.91523H23.8367V6.62048H24.9137V0.408032H24.3015C23.7196 0.453379 23.3077 0.84638 23.0658 1.58704L22.8844 2.34659H22.567L22.6237 0.113281H28.224L28.2807 2.34659H27.9632L27.7818 1.58704C27.7743 1.57192 27.7705 1.54925 27.7705 1.51902C27.5664 0.778361 27.1583 0.408032 26.5462 0.408032H25.8886V6.62048H26.6595C26.6973 6.62048 26.7351 6.62426 26.7729 6.63182C26.8938 6.65449 26.9543 6.74896 26.9543 6.91523Z" fill="#9D9D9D"/>
</svg>
