<svg width="121" height="42" viewBox="0 0 121 42" fill="none" xmlns="http://www.w3.org/2000/svg">
<path d="M117.125 35.2778V19.7222C117.125 16.4944 115.859 13.8889 113.749 13.8889C111.639 13.8889 110.374 16.4944 110.374 19.7222V35.2778C110.374 38.5056 111.639 41.1111 113.749 41.1111C115.859 41.1111 117.125 38.5056 117.125 35.2778ZM106.998 35.2778V19.7222C106.998 16.3 109.825 13.5 113.749 13.5C117.673 13.5 120.5 16.3 120.5 19.7222V35.2778C120.5 38.7 117.673 41.5 113.749 41.5C109.825 41.5 106.998 38.7 106.998 35.2778Z" fill="#191919"/>
<path d="M99.4891 35.2778V19.7222C99.4891 16.4944 98.2233 13.8889 96.1136 13.8889C94.004 13.8889 92.7382 16.4944 92.7382 19.7222V35.2778C92.7382 38.5056 94.004 41.1111 96.1136 41.1111C98.2233 41.1111 99.4891 38.5056 99.4891 35.2778ZM89.3627 35.2778V19.7222C89.3627 16.3 92.1897 13.5 96.1136 13.5C100.038 13.5 102.865 16.3 102.865 19.7222V35.2778C102.865 38.7 100.038 41.5 96.1136 41.5C92.1897 41.5 89.3627 38.7 89.3627 35.2778Z" fill="#191919"/>
<path d="M73.5688 41.1111V34.8889H73.9908C73.9908 38.2722 76.438 40.9944 79.2227 40.9944C81.5011 40.9944 83.1045 38.8167 83.1045 36.0556C83.1045 28.8611 73.5688 28.2778 73.5688 20.1111C73.5688 16.4556 75.6785 13.5 79.4337 13.5C81.3745 13.5 82.7669 14.2 83.7374 15.2889C84.3703 15.2889 84.8766 14.8222 84.8766 13.8889H85.2985V19.7222H84.8766C84.8766 16.5722 82.6403 14.0056 80.0666 14.0056C77.7881 14.0056 76.6067 15.7944 76.6067 18.5556C76.6067 25.8278 86.1424 26.4111 86.1424 34.5C86.1424 38.35 83.8217 41.5 79.8556 41.5C77.5772 41.5 75.9317 40.6056 74.8768 39.1667C74.4127 39.3222 73.9908 39.8667 73.9908 41.1111H73.5688Z" fill="#191919"/>
<path d="M59.4799 35.2778V19.7222C59.4799 16.4944 58.2141 13.8889 56.1044 13.8889C53.9948 13.8889 52.729 16.4944 52.729 19.7222V35.2778C52.729 38.5056 53.9948 41.1111 56.1044 41.1111C58.2141 41.1111 59.4799 38.5056 59.4799 35.2778ZM49.3535 35.2778V19.7222C49.3535 16.3 52.1805 13.5 56.1044 13.5C60.0284 13.5 62.8553 16.3 62.8553 19.7222V35.2778C62.8553 38.7 60.0284 41.5 56.1044 41.5C52.1805 41.5 49.3535 38.7 49.3535 35.2778Z" fill="#191919"/>
<path d="M37.2965 27.8889H35.6087V40.7223H37.2965V41.1111H30.5456V40.7223H32.2333V14.2778H30.5456V13.8889H37.2965C41.8533 13.8889 44.8912 16.6889 44.8912 20.1111V21.6667C44.8912 24.5445 42.6972 26.9945 39.3217 27.6945C42.6972 28.3945 44.8912 30.8445 44.8912 33.7223V38.9723C44.8912 39.7111 45.2709 40.2945 45.7351 40.2945C46.1992 40.2945 46.5789 39.7111 46.5789 38.9723H47.0009C47.0009 40.3723 45.7773 41.5 44.2583 41.5C42.7394 41.5 41.5158 40.3723 41.5158 38.9723V33.7223C41.5158 30.4945 39.6171 27.8889 37.2965 27.8889ZM37.2965 14.2778H35.6087V27.5H37.2965C39.6171 27.5 41.5158 24.8945 41.5158 21.6667V20.1111C41.5158 16.8834 39.6171 14.2778 37.2965 14.2778Z" fill="#191919"/>
<path d="M27.7421 13.8889V19.3334H27.3202C27.3202 16.5334 26.0966 14.2778 24.5776 14.2778H20.5693V27.3056H23.1009C24.0291 27.3056 24.7886 25.9056 24.7886 24.1945H25.2105V30.8056H24.7886C24.7886 29.0945 24.0291 27.6945 23.1009 27.6945H20.5693V40.7222H24.5776C26.0966 40.7222 27.3202 38.4667 27.3202 35.6667H27.7421V41.1111H15.5061V40.7222H17.1938V14.2778H15.5061V13.8889H27.7421Z" fill="#191919"/>
<path d="M12.9047 41.1111H0.5L9.65588 14.2778H4.08641C2.56746 14.2778 1.34386 16.5334 1.34386 19.3334H0.92193V13.8889H13.3267L4.17079 40.7222H9.74027C11.2592 40.7222 12.4828 38.4667 12.4828 35.6667H12.9047V41.1111Z" fill="#191919"/>
<path d="M76.1256 0.5C76.5748 0.5 77.0057 0.573333 77.4181 0.72C77.8379 0.859333 78.2098 1.072 78.5338 1.358C78.8579 1.63667 79.1157 1.985 79.3071 2.403C79.506 2.821 79.6054 3.30133 79.6054 3.844C79.6054 4.38667 79.506 4.867 79.3071 5.285C79.1157 5.69567 78.8579 6.044 78.5338 6.33C78.2098 6.60867 77.8379 6.82133 77.4181 6.968C77.0057 7.10733 76.5748 7.177 76.1256 7.177C75.6763 7.177 75.2418 7.10733 74.822 6.968C74.4022 6.82133 74.0303 6.60867 73.7063 6.33C73.3822 6.044 73.1208 5.69567 72.9219 5.285C72.7304 4.867 72.6347 4.38667 72.6347 3.844C72.6347 3.30133 72.7304 2.821 72.9219 2.403C73.1208 1.985 73.3822 1.63667 73.7063 1.358C74.0303 1.072 74.4022 0.859333 74.822 0.72C75.2418 0.573333 75.6763 0.5 76.1256 0.5ZM76.1256 6.693C76.5085 6.693 76.8547 6.61967 77.164 6.473C77.4807 6.319 77.7495 6.11367 77.9704 5.857C78.1914 5.60033 78.3608 5.29967 78.4786 4.955C78.6038 4.61033 78.6664 4.24 78.6664 3.844C78.6664 3.448 78.6038 3.07767 78.4786 2.733C78.3608 2.38833 78.1914 2.08767 77.9704 1.831C77.7495 1.57433 77.4807 1.37267 77.164 1.226C76.8547 1.072 76.5085 0.994999 76.1256 0.994999C75.7426 0.994999 75.3928 1.072 75.0761 1.226C74.7668 1.37267 74.498 1.57433 74.2697 1.831C74.0487 2.08767 73.8756 2.38833 73.7504 2.733C73.6326 3.07767 73.5737 3.448 73.5737 3.844C73.5737 4.24 73.6326 4.61033 73.7504 4.955C73.8756 5.29967 74.0487 5.60033 74.2697 5.857C74.498 6.11367 74.7668 6.319 75.0761 6.473C75.3928 6.61967 75.7426 6.693 76.1256 6.693Z" fill="#191919"/>
<path d="M68.0452 0.5C68.4945 0.5 68.9253 0.573333 69.3377 0.72C69.7575 0.859333 70.1294 1.072 70.4535 1.358C70.7775 1.63667 71.0353 1.985 71.2268 2.403C71.4256 2.821 71.5251 3.30133 71.5251 3.844C71.5251 4.38667 71.4256 4.867 71.2268 5.285C71.0353 5.69567 70.7775 6.044 70.4535 6.33C70.1294 6.60867 69.7575 6.82133 69.3377 6.968C68.9253 7.10733 68.4945 7.177 68.0452 7.177C67.596 7.177 67.1615 7.10733 66.7417 6.968C66.3219 6.82133 65.95 6.60867 65.6259 6.33C65.3019 6.044 65.0404 5.69567 64.8416 5.285C64.6501 4.867 64.5543 4.38667 64.5543 3.844C64.5543 3.30133 64.6501 2.821 64.8416 2.403C65.0404 1.985 65.3019 1.63667 65.6259 1.358C65.95 1.072 66.3219 0.859333 66.7417 0.72C67.1615 0.573333 67.596 0.5 68.0452 0.5ZM68.0452 6.693C68.4282 6.693 68.7743 6.61967 69.0836 6.473C69.4003 6.319 69.6691 6.11367 69.8901 5.857C70.111 5.60033 70.2804 5.29967 70.3982 4.955C70.5234 4.61033 70.5861 4.24 70.5861 3.844C70.5861 3.448 70.5234 3.07767 70.3982 2.733C70.2804 2.38833 70.111 2.08767 69.8901 1.831C69.6691 1.57433 69.4003 1.37267 69.0836 1.226C68.7743 1.072 68.4282 0.994999 68.0452 0.994999C67.6623 0.994999 67.3124 1.072 66.9957 1.226C66.6864 1.37267 66.4176 1.57433 66.1893 1.831C65.9684 2.08767 65.7953 2.38833 65.6701 2.733C65.5523 3.07767 65.4933 3.448 65.4933 3.844C65.4933 4.24 65.5523 4.61033 65.6701 4.955C65.7953 5.29967 65.9684 5.60033 66.1893 5.857C66.4176 6.11367 66.6864 6.319 66.9957 6.473C67.3124 6.61967 67.6623 6.693 68.0452 6.693Z" fill="#191919"/>
<path d="M63.9986 1.798L63.9102 1.809L63.391 1.226C63.2511 1.06467 63.0743 0.984 62.8608 0.984H61.3805V6.363C61.3805 6.50967 61.421 6.64533 61.502 6.77C61.583 6.88733 61.6935 6.97533 61.8334 7.034L62.0101 7.1V7.188H59.7786V7.1L59.9554 7.034C60.0953 6.97533 60.2058 6.88733 60.2868 6.77C60.3678 6.64533 60.4083 6.50967 60.4083 6.363V0.984H58.928C58.7144 0.984 58.5377 1.06467 58.3977 1.226L57.8785 1.809L57.7901 1.798L57.9779 0.5H63.8108L63.9986 1.798Z" fill="#191919"/>
<path d="M57.2344 1.798L57.1461 1.809L56.6268 1.226C56.4869 1.06467 56.3102 0.984 56.0966 0.984H54.6163V6.363C54.6163 6.50967 54.6568 6.64533 54.7378 6.77C54.8188 6.88733 54.9293 6.97533 55.0692 7.034L55.246 7.1V7.188H53.0144V7.1L53.1912 7.034C53.3311 6.97533 53.4416 6.88733 53.5226 6.77C53.6036 6.64533 53.6441 6.50967 53.6441 6.363V0.984H52.1638C51.9502 0.984 51.7735 1.06467 51.6336 1.226L51.1143 1.809L51.026 1.798L51.2138 0.5H57.0466L57.2344 1.798Z" fill="#191919"/>
<path d="M51.4123 7.078V7.166H48.9377V7.078L49.3354 6.924C49.4311 6.88733 49.4974 6.825 49.5342 6.737C49.5784 6.649 49.5821 6.55733 49.5453 6.462L48.8383 4.625H46.5957L45.8777 6.484C45.8408 6.57933 45.8408 6.671 45.8777 6.759C45.9218 6.847 45.9918 6.90933 46.0875 6.946L46.43 7.078V7.166H44.6072V7.078L44.6956 7.045C45.0418 6.90567 45.2848 6.66367 45.4247 6.319L47.6783 0.5H48.1975L50.4291 6.264C50.569 6.60867 50.812 6.85067 51.1582 6.99L51.4123 7.078ZM48.6615 4.152L47.7225 1.743L46.7835 4.152H48.6615Z" fill="#191919"/>
<path d="M44.8712 1.798L44.7828 1.809L44.2636 1.226C44.1237 1.06467 43.9469 0.984 43.7333 0.984H42.253V6.363C42.253 6.50967 42.2935 6.64533 42.3745 6.77C42.4555 6.88733 42.566 6.97533 42.7059 7.034L42.8827 7.1V7.188H40.6512V7.1L40.8279 7.034C40.9679 6.97533 41.0783 6.88733 41.1593 6.77C41.2404 6.64533 41.2809 6.50967 41.2809 6.363V0.984H39.8006C39.587 0.984 39.4102 1.06467 39.2703 1.226L38.7511 1.809L38.6627 1.798L38.8505 0.5H44.6834L44.8712 1.798Z" fill="#191919"/>
</svg>
