<svg width="96" height="40" viewBox="0 0 96 40" fill="none" xmlns="http://www.w3.org/2000/svg">
<path d="M91.2107 39.5413H83.6871V38.3486H85.9553V28.3024L80.8381 13.2102H79.3998V12.0175H86.2595V13.2102H84.1574L88.4171 26.3299L92.4278 13.2102H90.215V12.0175H95.1108C95.1108 12.1704 95.1016 12.3233 95.0832 12.4762C95.0279 12.9656 94.7974 13.2102 94.3917 13.2102C93.7832 13.2408 93.2945 13.6689 92.9257 14.4947L88.9426 27.8895V38.3486H90.4639C90.8143 38.4097 91.0632 38.8073 91.2107 39.5413Z" fill="#191919"/>
<path d="M59.7574 12.0175H67.6406C69.5953 12.0175 71.3102 12.7974 72.7854 14.357C75.1089 16.8036 76.2706 20.6263 76.2706 25.8253C76.2706 29.8621 75.4685 33.1496 73.8642 35.6879C72.223 38.2568 70.1485 39.5413 67.6406 39.5413H59.7574V38.3486H61.9702V13.2102H59.7574V12.0175ZM67.6406 13.2102H64.9299V38.3486H67.6683C71.0428 38.1957 72.7946 33.9448 72.9237 25.5959C72.9237 23.1799 72.7854 21.1309 72.5088 19.4489C71.8265 15.2898 70.2038 13.2102 67.6406 13.2102Z" fill="#191919"/>
<path d="M47.2243 11.559C49.1789 11.559 50.9031 12.4764 52.3967 14.3113C54.5358 16.9414 55.6053 20.7794 55.6053 25.8254C55.6053 30.0763 54.7479 33.5474 53.0329 36.2386C51.4102 38.7463 49.4463 40.0002 47.1413 40.0002C45.1313 40.0002 43.361 39.0216 41.8305 37.0643C39.7468 34.3425 38.7049 30.5351 38.7049 25.6419C38.7049 21.4216 39.5716 17.9812 41.3049 15.3205C42.9277 12.8128 44.9008 11.559 47.2243 11.559ZM47.2243 38.7157C50.5066 38.6851 52.157 34.3119 52.1755 25.5961C52.157 17.1555 50.479 12.9046 47.1413 12.8434C43.8036 12.874 42.1255 17.2013 42.1071 25.8254C42.1255 34.3578 43.8313 38.6546 47.2243 38.7157Z" fill="#191919"/>
<path d="M25.7567 11.559C27.7113 11.559 29.4355 12.4764 30.9292 14.3113C33.0682 16.9414 34.1378 20.7794 34.1378 25.8254C34.1378 30.0763 33.2803 33.5474 31.5653 36.2386C29.9426 38.7463 27.9787 40.0002 25.6737 40.0002C23.6637 40.0002 21.8935 39.0216 20.3629 37.0643C18.2792 34.3425 17.2373 30.5351 17.2373 25.6419C17.2373 21.4216 18.104 17.9812 19.8374 15.3205C21.4601 12.8128 23.4332 11.559 25.7567 11.559ZM25.7567 38.7157C29.039 38.6851 30.6894 34.3119 30.7079 25.5961C30.6894 17.1555 29.0114 12.9046 25.6737 12.8434C22.336 12.874 20.658 17.2013 20.6395 25.8254C20.658 34.3578 22.3637 38.6546 25.7567 38.7157Z" fill="#191919"/>
<path d="M12.6982 32.1557C12.6982 34.0824 12.2833 35.7338 11.4535 37.11C10.2549 39.0367 8.54915 40 6.33633 40C4.43698 40 2.78659 39.2201 1.38513 37.6605C1.38513 38.2415 1.36669 38.6697 1.32981 38.9449C1.23761 39.4036 0.961005 39.633 0.5 39.633V30.0456H1.44045C1.47733 31.0242 1.56953 31.9416 1.71705 32.7979C2.32558 36.743 3.8008 38.7155 6.1427 38.7155C6.78811 38.7155 7.38742 38.5168 7.94062 38.1192C9.1208 37.2629 9.71088 35.7644 9.71088 33.6237C9.71088 32.8591 9.60946 32.1557 9.40662 31.5135C8.9825 30.2291 7.95906 28.9446 6.33633 27.6602C4.54763 26.284 3.51497 25.4583 3.23837 25.183C1.50499 23.5316 0.638302 21.4215 0.638302 18.8526C0.638302 17.1094 1.01633 15.6109 1.77237 14.357C2.87879 12.4915 4.46464 11.5588 6.52995 11.5588C8.18957 11.5588 9.7201 12.1551 11.1216 13.3478C11.1216 13.0726 11.1308 12.8279 11.1492 12.6139C11.223 12.0634 11.5088 11.7881 12.0067 11.7881V19.9076H11.0662C11.0662 18.2256 10.8173 16.7883 10.3194 15.5956C9.52648 13.7913 8.36475 12.8891 6.83421 12.8891C6.29945 12.8891 5.80156 13.0267 5.34055 13.3019C4.2157 14.0359 3.65328 15.3662 3.65328 17.2929C3.65328 18.0574 3.7547 18.7455 3.95754 19.3572C4.36322 20.6416 5.36822 21.8955 6.97251 23.1188C8.76121 24.4949 9.80309 25.3359 10.0981 25.6418C11.8315 27.3238 12.6982 29.4951 12.6982 32.1557Z" fill="#191919"/>
<path d="M67.7187 0C68.4896 0 69.1698 0.222953 69.7593 0.668858C70.6285 1.31882 71.063 2.26732 71.063 3.51434C71.063 4.57998 70.704 5.44912 69.986 6.12175C69.3436 6.72637 68.5765 7.02868 67.6847 7.02868C66.8912 7.02868 66.1883 6.78683 65.5761 6.30314C64.7372 5.63806 64.3178 4.69334 64.3178 3.46899C64.3178 2.41091 64.673 1.55311 65.3834 0.89559C66.0334 0.29853 66.8118 0 67.7187 0ZM67.7187 6.71126C68.021 6.71126 68.3007 6.65457 68.5576 6.54121C69.4721 6.14065 69.9294 5.11658 69.9294 3.46899C69.9218 1.38306 69.1736 0.33254 67.6847 0.317424C67.4731 0.317424 67.2728 0.340097 67.0839 0.385444C65.9956 0.672637 65.4514 1.7156 65.4514 3.51434C65.4514 4.0585 65.5043 4.53841 65.6101 4.95409C65.92 6.12553 66.6229 6.71126 67.7187 6.71126Z" fill="#191919"/>
<path d="M58.2754 0C59.0463 0 59.7264 0.222953 60.3159 0.668858C61.1851 1.31882 61.6197 2.26732 61.6197 3.51434C61.6197 4.57998 61.2607 5.44912 60.5427 6.12175C59.9003 6.72637 59.1332 7.02868 58.2414 7.02868C57.4478 7.02868 56.7449 6.78683 56.1328 6.30314C55.2938 5.63806 54.8744 4.69334 54.8744 3.46899C54.8744 2.41091 55.2296 1.55311 55.94 0.89559C56.59 0.29853 57.3684 0 58.2754 0ZM58.2754 6.71126C58.5777 6.71126 58.8573 6.65457 59.1143 6.54121C60.0288 6.14065 60.486 5.11658 60.486 3.46899C60.4784 1.38306 59.7302 0.33254 58.2414 0.317424C58.0297 0.317424 57.8295 0.340097 57.6405 0.385444C56.5522 0.672637 56.008 1.7156 56.008 3.51434C56.008 4.0585 56.061 4.53841 56.1668 4.95409C56.4766 6.12553 57.1795 6.71126 58.2754 6.71126Z" fill="#191919"/>
<path d="M51.0767 6.91535H47.9591V6.6206H49.0361V0.408154H48.4239C47.842 0.453501 47.4301 0.846502 47.1882 1.58716L47.0069 2.34671H46.6894L46.7461 0.113403H52.3464L52.4031 2.34671H52.0857L51.9043 1.58716C51.8967 1.57204 51.8929 1.54937 51.8929 1.51914C51.6889 0.778483 51.2808 0.408154 50.6686 0.408154H50.0111V6.6206H50.7819C50.8197 6.6206 50.8575 6.62438 50.8953 6.63194C51.0162 6.65461 51.0767 6.74908 51.0767 6.91535Z" fill="#191919"/>
<path d="M43.1184 6.91535H40.0008V6.6206H41.0778V0.408154H40.4656C39.8837 0.453501 39.4718 0.846502 39.2299 1.58716L39.0486 2.34671H38.7311L38.7878 0.113403H44.3881L44.4448 2.34671H44.1274L43.946 1.58716C43.9384 1.57204 43.9346 1.54937 43.9346 1.51914C43.7306 0.778483 43.3225 0.408154 42.7103 0.408154H42.0528V6.6206H42.8236C42.8614 6.6206 42.8992 6.62438 42.937 6.63194C43.0579 6.65461 43.1184 6.74908 43.1184 6.91535Z" fill="#191919"/>
<path d="M36.8833 6.91535H34.4346V6.6206H35.1715L34.3212 4.4213H31.9519L31.1016 6.6206H31.6571C31.6949 6.6206 31.7327 6.62438 31.7705 6.63194C31.8914 6.65461 31.9519 6.74908 31.9519 6.91535H29.934V6.6206H30.6482L33.1876 0.113403H33.607L36.2031 6.6206H36.5885C36.6263 6.6206 36.6641 6.62438 36.7019 6.63194C36.8228 6.65461 36.8833 6.74908 36.8833 6.91535ZM34.1965 4.09254L33.1309 1.34909L32.0766 4.09254H34.1965Z" fill="#191919"/>
<path d="M26.7597 6.91535H23.6421V6.6206H24.7191V0.408154H24.1069C23.525 0.453501 23.1131 0.846502 22.8713 1.58716L22.6899 2.34671H22.3725L22.4291 0.113403H28.0294L28.0861 2.34671H27.7687L27.5873 1.58716C27.5797 1.57204 27.5759 1.54937 27.5759 1.51914C27.3719 0.778483 26.9638 0.408154 26.3516 0.408154H25.6941V6.6206H26.465C26.5027 6.6206 26.5405 6.62438 26.5783 6.63194C26.6992 6.65461 26.7597 6.74908 26.7597 6.91535Z" fill="#191919"/>
</svg>
