<svg width="40" height="40" viewBox="0 0 40 40" fill="none" xmlns="http://www.w3.org/2000/svg">
<path fill-rule="evenodd" clip-rule="evenodd" d="M20 40C31.0457 40 40 31.0457 40 20C40 8.9543 31.0457 0 20 0C8.9543 0 0 8.9543 0 20C0 31.0457 8.9543 40 20 40ZM28.485 11.5148C29.266 12.2959 29.266 13.5622 28.485 14.3432L22.8281 20.0001L28.485 25.6569C29.266 26.438 29.266 27.7043 28.485 28.4854C27.7039 29.2664 26.4376 29.2664 25.6565 28.4854L19.9997 22.8285L14.3428 28.4854C13.5618 29.2664 12.2955 29.2664 11.5144 28.4854C10.7334 27.7043 10.7334 26.438 11.5144 25.6569L17.1713 20.0001L11.5144 14.3432C10.7334 13.5622 10.7334 12.2959 11.5144 11.5148C12.2955 10.7338 13.5618 10.7338 14.3428 11.5148L19.9997 17.1717L25.6565 11.5148C26.4376 10.7338 27.7039 10.7338 28.485 11.5148Z" fill="white"/>
</svg>
