<svg width="40" height="40" viewBox="0 0 40 40" fill="none" xmlns="http://www.w3.org/2000/svg">
<path fill-rule="evenodd" clip-rule="evenodd" d="M20 40C31.0457 40 40 31.0457 40 20C40 8.9543 31.0457 0 20 0C8.9543 0 0 8.9543 0 20C0 31.0457 8.9543 40 20 40ZM28.4853 11.5148C29.2663 12.2959 29.2663 13.5622 28.4853 14.3432L22.8284 20.0001L28.4853 25.6569C29.2663 26.438 29.2663 27.7043 28.4853 28.4854C27.7042 29.2664 26.4379 29.2664 25.6568 28.4854L20 22.8285L14.3431 28.4854C13.5621 29.2664 12.2957 29.2664 11.5147 28.4854C10.7336 27.7043 10.7337 26.438 11.5147 25.6569L17.1716 20.0001L11.5147 14.3432C10.7337 13.5622 10.7337 12.2959 11.5147 11.5148C12.2957 10.7338 13.5621 10.7338 14.3431 11.5148L20 17.1717L25.6568 11.5148C26.4379 10.7338 27.7042 10.7338 28.4853 11.5148Z" fill="#797979"/>
</svg>
