<svg width="40" height="40" viewBox="0 0 40 40" fill="none" xmlns="http://www.w3.org/2000/svg">
<circle cx="20" cy="20" r="20" fill="url(#paint0_linear_334_7819)"/>
<path d="M19.6244 9.97535C22.9344 9.97535 23.3344 9.98535 24.6444 10.0454C25.8544 10.1054 26.5144 10.3054 26.9544 10.4754C27.5344 10.6954 27.9444 10.9654 28.3844 11.4054C28.8144 11.8354 29.0844 12.2554 29.3144 12.8354C29.4844 13.2754 29.6844 13.9254 29.7444 15.1354C29.8044 16.4454 29.8144 16.8354 29.8144 20.1554C29.8144 23.4754 29.8044 23.8654 29.7444 25.1754C29.6844 26.3853 29.4844 27.0454 29.3144 27.4854C29.0844 28.0654 28.8244 28.4754 28.3844 28.9154C27.9544 29.3554 27.5344 29.6154 26.9544 29.8454C26.5144 30.0154 25.8544 30.2154 24.6444 30.2754C23.3344 30.3354 22.9444 30.3454 19.6244 30.3454C16.3044 30.3454 15.9144 30.3354 14.6044 30.2754C13.3944 30.2254 12.7344 30.0154 12.2944 29.8454C11.7144 29.6154 11.3044 29.3554 10.8644 28.9154C10.4244 28.4854 10.1644 28.0654 9.93436 27.4854C9.76436 27.0454 9.56436 26.3853 9.50436 25.1754C9.44436 23.8654 9.43436 23.4754 9.43436 20.1554C9.43436 16.8354 9.44436 16.4454 9.50436 15.1354C9.56436 13.9254 9.76436 13.2654 9.93436 12.8354C10.1644 12.2554 10.4244 11.8454 10.8644 11.4054C11.2944 10.9654 11.7144 10.7054 12.2944 10.4754C12.7344 10.3054 13.3844 10.1054 14.6044 10.0454C15.9144 9.98535 16.3044 9.97535 19.6244 9.97535ZM19.6244 7.73535C16.2544 7.73535 15.8344 7.74535 14.5044 7.80535C13.1844 7.86535 12.2844 8.07535 11.4944 8.38535C10.6744 8.70535 9.98436 9.12535 9.29436 9.81535C8.60436 10.5054 8.18436 11.1954 7.86436 12.0154C7.55436 12.8054 7.34436 13.7054 7.28436 15.0254C7.22436 16.3454 7.21436 16.7754 7.21436 20.1454C7.21436 23.5154 7.22436 23.9354 7.28436 25.2654C7.34436 26.5854 7.55436 27.4854 7.86436 28.2754C8.18436 29.0954 8.60436 29.7854 9.29436 30.4754C9.98436 31.1654 10.6744 31.5854 11.4944 31.9053C12.2844 32.2153 13.1844 32.4254 14.5044 32.4854C15.8344 32.5454 16.2544 32.5654 19.6244 32.5654C22.9944 32.5654 23.4144 32.5454 24.7444 32.4854C26.0644 32.4254 26.9644 32.2153 27.7544 31.9053C28.5744 31.5854 29.2644 31.1654 29.9544 30.4754C30.6444 29.7854 31.0644 29.0954 31.3844 28.2754C31.6944 27.4854 31.9044 26.5854 31.9644 25.2654C32.0244 23.9454 32.0344 23.5154 32.0344 20.1454C32.0344 16.7754 32.0244 16.3554 31.9644 15.0254C31.9044 13.7054 31.6944 12.8054 31.3844 12.0154C31.0644 11.1954 30.6444 10.5054 29.9544 9.81535C29.2644 9.12535 28.5644 8.70535 27.7544 8.38535C26.9644 8.07535 26.0644 7.86535 24.7444 7.80535C23.4244 7.74535 22.9944 7.73535 19.6244 7.73535Z" fill="white"/>
<path d="M19.6244 13.7852C16.1044 13.7852 13.2544 16.6352 13.2544 20.1552C13.2544 23.6752 16.1044 26.5352 19.6244 26.5352C23.1444 26.5352 26.0044 23.6852 26.0044 20.1552C26.0044 16.6252 23.1544 13.7852 19.6244 13.7852ZM19.6244 24.2952C17.3444 24.2952 15.4844 22.4352 15.4844 20.1552C15.4844 17.8752 17.3344 16.0152 19.6244 16.0152C21.9144 16.0152 23.7644 17.8652 23.7644 20.1552C23.7644 22.4452 21.9144 24.2952 19.6244 24.2952Z" fill="white"/>
<path d="M27.7444 13.5252C27.7444 14.3452 27.0744 15.0152 26.2544 15.0152C25.4344 15.0152 24.7644 14.3452 24.7644 13.5252C24.7644 12.7052 25.4344 12.0352 26.2544 12.0352C27.0744 12.0352 27.7444 12.7052 27.7444 13.5252Z" fill="white"/>
<defs>
<linearGradient id="paint0_linear_334_7819" x1="20" y1="0" x2="20" y2="40" gradientUnits="userSpaceOnUse">
<stop stop-color="#870BFB"/>
<stop offset="0.208333" stop-color="#FC01D8"/>
<stop offset="0.453125" stop-color="#FD0784"/>
<stop offset="0.692708" stop-color="#FE212D"/>
<stop offset="1" stop-color="#FEC400"/>
</linearGradient>
</defs>
</svg>
