<svg width="40" height="40" viewBox="0 0 40 40" fill="none" xmlns="http://www.w3.org/2000/svg">
<circle cx="20" cy="20" r="20" fill="#797979"/>
<path d="M20 8.48047C13.11 8.48047 7.53003 12.8905 7.53003 18.3305C7.53003 21.8305 9.84003 24.8905 13.32 26.6505L12.14 31.0405C12.1 31.1705 12.14 31.3205 12.23 31.4105C12.3 31.4805 12.39 31.5205 12.48 31.5205C12.55 31.5205 12.63 31.4905 12.7 31.4405L17.75 28.0305C18.48 28.1305 19.23 28.1905 20 28.1905C26.88 28.1905 32.47 23.7805 32.47 18.3405C32.47 12.9005 26.89 8.49047 20 8.49047V8.48047Z" fill="white"/>
<g clip-path="url(#clip0_334_7825)">
<path d="M10.5051 15.0557C10.3551 15.0557 10.2151 15.1157 10.1051 15.2157C10.0551 15.2657 10.0151 15.3157 9.98507 15.3757C9.95507 15.4457 9.94507 15.5157 9.94507 15.5857C9.94507 15.6557 9.95507 15.7257 9.98507 15.7857C10.0251 15.8757 10.1051 15.9557 10.1851 16.0157C10.2851 16.0757 10.3851 16.1057 10.5051 16.1057H11.8851V20.7957C11.8851 20.9457 11.9451 21.0857 12.0451 21.1957C12.1551 21.3057 12.2951 21.3657 12.4451 21.3657H12.5751C12.7251 21.3657 12.8751 21.2957 12.9751 21.1957C13.0851 21.0957 13.1451 20.9457 13.1451 20.7957V16.1057H14.5051C14.6551 16.1057 14.7951 16.0457 14.9051 15.9557C14.9551 15.9057 14.9951 15.8457 15.0251 15.7857C15.0551 15.7157 15.0651 15.6557 15.0651 15.5857C15.0651 15.5157 15.0551 15.4457 15.0251 15.3757C14.9851 15.2857 14.9151 15.2057 14.8151 15.1557C14.7251 15.0957 14.6151 15.0557 14.5051 15.0557H10.5051Z" fill="#797979"/>
<path d="M15.6651 20.0556H18.2851L18.7451 21.0756C18.7951 21.1756 18.8651 21.2556 18.9651 21.3256C19.1251 21.4256 19.3351 21.4356 19.4951 21.3556L19.6151 21.3056C19.7151 21.2656 19.7951 21.1856 19.8551 21.0956L20.0151 20.8356L17.6151 15.5056C17.6051 15.4456 17.5751 15.3856 17.5451 15.3356C17.5251 15.2956 17.5051 15.2656 17.4651 15.2356C17.4151 15.1756 17.3751 15.1356 17.3251 15.1056C17.2451 15.0556 17.1451 15.0256 17.0451 15.0156C16.9951 15.0156 16.9751 15.0156 16.9451 15.0156C16.8351 15.0156 16.7351 15.0456 16.6451 15.1056C16.5751 15.1456 16.5151 15.2056 16.4751 15.2756C16.4451 15.3156 16.4351 15.3256 16.4251 15.3456C16.3951 15.3956 16.3751 15.4456 16.3551 15.5056V15.5556L14.0651 20.5456C14.0351 20.6156 14.0151 20.6956 14.0151 20.7756C14.0151 20.8856 14.0451 20.9956 14.1051 21.0856C14.1651 21.1756 14.2451 21.2456 14.3451 21.2956L14.4551 21.3456C14.6251 21.4256 14.8351 21.4056 14.9951 21.3056C15.0851 21.2456 15.1551 21.1656 15.2051 21.0556L15.6651 20.0456V20.0556ZM27.1351 18.7056L28.9151 21.1356C28.9651 21.2056 29.0351 21.2656 29.1151 21.3056C29.3051 21.3956 29.5351 21.3756 29.7051 21.2556L29.8051 21.1756C29.8751 21.1256 29.9451 21.0556 29.9851 20.9756C30.0151 20.8956 30.0351 20.8056 30.0351 20.7156C30.0351 20.5956 29.9951 20.4756 29.9251 20.3856L28.0151 17.7756L29.6151 16.1156C29.7151 16.0156 29.7751 15.8656 29.7751 15.7256C29.7751 15.6456 29.7551 15.5756 29.7251 15.5056C29.6951 15.4356 29.6551 15.3656 29.5951 15.3156L29.5051 15.2256C29.3451 15.0656 29.0951 15.0356 28.8951 15.1156C28.8251 15.1456 28.7551 15.1856 28.7051 15.2456L26.3851 17.6656V15.6356C26.3851 15.4856 26.3251 15.3356 26.2251 15.2356C26.1151 15.1256 25.9751 15.0556 25.8251 15.0556H25.6951C25.5451 15.0556 25.3951 15.1256 25.2951 15.2256C25.1951 15.3356 25.1351 15.4756 25.1351 15.6256V20.9356L25.2051 21.0656C25.2051 21.0656 25.2651 21.1556 25.2951 21.1856C25.4051 21.2956 25.5451 21.3556 25.6951 21.3556H25.8251C25.9751 21.3556 26.1251 21.2856 26.2251 21.1856C26.3351 21.0856 26.3851 20.9356 26.3851 20.7856V19.4656L27.1351 18.6856V18.7056ZM20.3151 20.9856L20.3651 21.0856C20.4151 21.1656 20.4751 21.2256 20.5551 21.2756C20.6351 21.3256 20.7251 21.3556 20.8151 21.3656C20.8351 21.3656 20.8551 21.3656 20.8751 21.3656H24.1851C24.3351 21.3656 24.4851 21.3056 24.5851 21.2156C24.6251 21.1756 24.6651 21.1256 24.6951 21.0756L24.8551 20.7856L24.6251 20.5356C24.6251 20.5356 24.5451 20.4556 24.4951 20.4356C24.4051 20.3756 24.2951 20.3456 24.1851 20.3456H21.5751V15.6356C21.5751 15.4856 21.5151 15.3356 21.4151 15.2356C21.3051 15.1256 21.1551 15.0556 21.0051 15.0556H20.8751C20.7251 15.0556 20.5851 15.1256 20.4751 15.2256C20.3751 15.3356 20.3051 15.4756 20.3051 15.6256V20.9756L20.3151 20.9856ZM17.8151 19.0256H16.1351L16.9751 17.1856L17.8151 19.0256Z" fill="#797979"/>
</g>
<defs>
<clipPath id="clip0_334_7825">
<rect width="20.11" height="6.38" fill="white" transform="translate(9.94507 15.0156)"/>
</clipPath>
</defs>
</svg>
