<svg width="40" height="40" viewBox="0 0 40 40" fill="none" xmlns="http://www.w3.org/2000/svg">
<circle cx="20" cy="20" r="20" fill="#F3E12B"/>
<path d="M20 8.48047C13.11 8.48047 7.53003 12.8905 7.53003 18.3305C7.53003 21.8305 9.84003 24.8905 13.32 26.6505L12.14 31.0405C12.1 31.1705 12.14 31.3205 12.23 31.4105C12.3 31.4805 12.39 31.5205 12.48 31.5205C12.55 31.5205 12.63 31.4905 12.7 31.4405L17.75 28.0305C18.48 28.1305 19.23 28.1905 20 28.1905C26.88 28.1905 32.47 23.7805 32.47 18.3405C32.47 12.9005 26.89 8.49047 20 8.49047V8.48047Z" fill="#3B1E1E"/>
<g clip-path="url(#clip0_334_7813)">
<path d="M10.5051 15.04C10.3551 15.04 10.2151 15.1 10.1051 15.2C10.0551 15.25 10.0151 15.3 9.98507 15.36C9.95507 15.43 9.94507 15.5 9.94507 15.57C9.94507 15.64 9.95507 15.71 9.98507 15.77C10.0251 15.86 10.1051 15.94 10.1851 16C10.2851 16.06 10.3851 16.09 10.5051 16.09H11.8851V20.78C11.8851 20.93 11.9451 21.07 12.0451 21.18C12.1551 21.29 12.2951 21.35 12.4451 21.35H12.5751C12.7251 21.35 12.8751 21.28 12.9751 21.18C13.0851 21.08 13.1451 20.93 13.1451 20.78V16.09H14.5051C14.6551 16.09 14.7951 16.03 14.9051 15.94C14.9551 15.89 14.9951 15.83 15.0251 15.77C15.0551 15.7 15.0651 15.64 15.0651 15.57C15.0651 15.5 15.0551 15.43 15.0251 15.36C14.9851 15.27 14.9151 15.19 14.8151 15.14C14.7251 15.08 14.6151 15.04 14.5051 15.04H10.5051Z" fill="url(#paint0_linear_334_7813)"/>
<path d="M15.6651 20.04H18.2851L18.7451 21.06C18.7951 21.16 18.8651 21.24 18.9651 21.31C19.1251 21.41 19.3351 21.42 19.4951 21.34L19.6151 21.29C19.7151 21.25 19.7951 21.17 19.8551 21.08L20.0151 20.82L17.6151 15.49C17.6051 15.43 17.5751 15.37 17.5451 15.32C17.5251 15.28 17.5051 15.25 17.4651 15.22C17.4151 15.16 17.3751 15.12 17.3251 15.09C17.2451 15.04 17.1451 15.01 17.0451 15C16.9951 15 16.9751 15 16.9451 15C16.8351 15 16.7351 15.03 16.6451 15.09C16.5751 15.13 16.5151 15.19 16.4751 15.26C16.4451 15.3 16.4351 15.31 16.4251 15.33C16.3951 15.38 16.3751 15.43 16.3551 15.49V15.54L14.0651 20.53C14.0351 20.6 14.0151 20.68 14.0151 20.76C14.0151 20.87 14.0451 20.98 14.1051 21.07C14.1651 21.16 14.2451 21.23 14.3451 21.28L14.4551 21.33C14.6251 21.41 14.8351 21.39 14.9951 21.29C15.0851 21.23 15.1551 21.15 15.2051 21.04L15.6651 20.03V20.04ZM27.1351 18.69L28.9151 21.12C28.9651 21.19 29.0351 21.25 29.1151 21.29C29.3051 21.38 29.5351 21.36 29.7051 21.24L29.8051 21.16C29.8751 21.11 29.9451 21.04 29.9851 20.96C30.0151 20.88 30.0351 20.79 30.0351 20.7C30.0351 20.58 29.9951 20.46 29.9251 20.37L28.0151 17.76L29.6151 16.1C29.7151 16 29.7751 15.85 29.7751 15.71C29.7751 15.63 29.7551 15.56 29.7251 15.49C29.6951 15.42 29.6551 15.35 29.5951 15.3L29.5051 15.21C29.3451 15.05 29.0951 15.02 28.8951 15.1C28.8251 15.13 28.7551 15.17 28.7051 15.23L26.3851 17.65V15.62C26.3851 15.47 26.3251 15.32 26.2251 15.22C26.1151 15.11 25.9751 15.04 25.8251 15.04H25.6951C25.5451 15.04 25.3951 15.11 25.2951 15.21C25.1951 15.32 25.1351 15.46 25.1351 15.61V20.92L25.2051 21.05C25.2051 21.05 25.2651 21.14 25.2951 21.17C25.4051 21.28 25.5451 21.34 25.6951 21.34H25.8251C25.9751 21.34 26.1251 21.27 26.2251 21.17C26.3351 21.07 26.3851 20.92 26.3851 20.77V19.45L27.1351 18.67V18.69ZM20.3151 20.97L20.3651 21.07C20.4151 21.15 20.4751 21.21 20.5551 21.26C20.6351 21.31 20.7251 21.34 20.8151 21.35C20.8351 21.35 20.8551 21.35 20.8751 21.35H24.1851C24.3351 21.35 24.4851 21.29 24.5851 21.2C24.6251 21.16 24.6651 21.11 24.6951 21.06L24.8551 20.77L24.6251 20.52C24.6251 20.52 24.5451 20.44 24.4951 20.42C24.4051 20.36 24.2951 20.33 24.1851 20.33H21.5751V15.62C21.5751 15.47 21.5151 15.32 21.4151 15.22C21.3051 15.11 21.1551 15.04 21.0051 15.04H20.8751C20.7251 15.04 20.5851 15.11 20.4751 15.21C20.3751 15.32 20.3051 15.46 20.3051 15.61V20.96L20.3151 20.97ZM17.8151 19.01H16.1351L16.9751 17.17L17.8151 19.01Z" fill="url(#paint1_linear_334_7813)"/>
</g>
<defs>
<linearGradient id="paint0_linear_334_7813" x1="12.5151" y1="15.12" x2="12.5151" y2="21.58" gradientUnits="userSpaceOnUse">
<stop stop-color="#FFF362"/>
<stop offset="1" stop-color="#FFF000"/>
</linearGradient>
<linearGradient id="paint1_linear_334_7813" x1="22.0351" y1="15.13" x2="22.0351" y2="21.57" gradientUnits="userSpaceOnUse">
<stop stop-color="#FFF362"/>
<stop offset="1" stop-color="#FFF000"/>
</linearGradient>
<clipPath id="clip0_334_7813">
<rect width="20.11" height="6.38" fill="white" transform="translate(9.94507 15)"/>
</clipPath>
</defs>
</svg>
