<svg width="130" height="130" viewBox="0 0 130 130" fill="none" xmlns="http://www.w3.org/2000/svg">
<path fill-rule="evenodd" clip-rule="evenodd" d="M65 130C100.899 130 130 100.899 130 65C130 29.1015 100.899 0 65 0C29.1015 0 0 29.1015 0 65C0 100.899 29.1015 130 65 130ZM65 26C68.5899 26 71.5 28.9101 71.5 32.5V58.5H97.5C101.09 58.5 104 61.4101 104 65C104 68.5899 101.09 71.5 97.5 71.5H71.5V97.5C71.5 101.09 68.5899 104 65 104C61.4101 104 58.5 101.09 58.5 97.5V71.5H32.5C28.9102 71.5 26 68.5898 26 65C26 61.4101 28.9102 58.5 32.5 58.5H58.5V32.5C58.5 28.9101 61.4101 26 65 26Z" fill="#797979"/>
</svg>
